<?xml version="1.0" encoding="utf-8"?>
<!-- Generator: Adobe Illustrator 22.0.0, SVG Export Plug-In . SVG Version: 6.00 Build 0)  -->
<svg version="1.1" id="Capa_1" xmlns="http://www.w3.org/2000/svg" xmlns:xlink="http://www.w3.org/1999/xlink" x="0px" y="0px"
	 viewBox="0 0 512 512" style="enable-background:new 0 0 512 512;" xml:space="preserve">
<style type="text/css">
	.st0{fill:#2196F3;}
	.st1{fill:#FAFAFA;}
	.st2{font-family:'Roboto-Black';}
	.st3{font-size:102.3176px;}
	.st4{letter-spacing:6.3;}
</style>
<path class="st0" d="M434.6,110.2c-2-2.2-4.9-3.5-7.9-3.5H85.4c-5.9,0-10.7,4.7-10.7,10.6c0,0.4,0,0.7,0,1.1l32,341.3
	c0.4,4.4,3.5,8.1,7.7,9.3l149.3,42.7c1,0.3,2,0.4,3,0.4c1.1,0,2.3-0.2,3.4-0.5l128-42.7c4-1.3,6.9-4.9,7.3-9.1l32-341.3
	C437.6,115.3,436.6,112.4,434.6,110.2z"/>
<g>
	<path class="st1" d="M266.7,426.7c-1,0-2-0.1-2.9-0.4l-74.7-21.3c-3.7-1-6.5-4-7.4-7.7L171,354.6c-1.6-5.7,1.8-11.5,7.5-13.1
		s11.6,1.8,13.1,7.5c0,0.2,0.1,0.3,0.1,0.5l9.2,36.7l65.8,18.8l64.9-18.5l19.2-173H160c-5.9,0-10.7-4.8-10.7-10.7
		c0-5.9,4.8-10.7,10.7-10.7h202.7c5.9,0,10.7,4.7,10.7,10.6c0,0.4,0,0.8-0.1,1.2l-21.3,192c-0.5,4.3-3.5,7.9-7.7,9.1l-74.7,21.3
		C268.7,426.5,267.7,426.7,266.7,426.7z"/>
	<path class="st1" d="M352,298.7H170.7c-5.9,0-10.7-4.8-10.7-10.7s4.8-10.7,10.7-10.7H352c5.9,0,10.7,4.8,10.7,10.7
		S357.9,298.7,352,298.7z"/>
</g>
<text transform="matrix(1.1097 0 0 1 145.0904 75.2725)" class="st0 st2 st3 st4">CSS</text>
</svg>
