<?xml version="1.0" encoding="utf-8"?>
<!-- Generator: Adobe Illustrator 22.0.0, SVG Export Plug-In . SVG Version: 6.00 Build 0)  -->
<svg version="1.1" id="Capa_1" xmlns="http://www.w3.org/2000/svg" xmlns:xlink="http://www.w3.org/1999/xlink" x="0px" y="0px"
	 viewBox="0 0 512 512" style="enable-background:new 0 0 512 512;" xml:space="preserve">
<style type="text/css">
	.st0{fill:#2196F3;}
	.st1{fill:#FAFAFA;}
	.st2{enable-background:new    ;}
</style>
<path class="st0" d="M434.6,110.2c-2-2.2-4.9-3.5-7.9-3.5H85.4c-5.9,0-10.7,4.7-10.7,10.6c0,0.4,0,0.7,0,1.1l32,341.3
	c0.4,4.4,3.5,8.1,7.7,9.3l149.3,42.7c1,0.3,2,0.4,3,0.4c1.1,0,2.3-0.2,3.4-0.5l128-42.7c4-1.3,6.9-4.9,7.3-9.1l32-341.3
	C437.6,115.3,436.6,112.4,434.6,110.2z"/>
<g>
	<path class="st1" d="M266.7,426.7c-1,0-2-0.1-2.9-0.4L189.1,405c-3.7-1-6.5-4-7.4-7.7L171,354.6c-1.6-5.7,1.8-11.5,7.5-13.1
		s11.6,1.8,13.1,7.5c0,0.2,0.1,0.3,0.1,0.5l9.2,36.7l65.8,18.8l64.9-18.5l19.2-173H160c-5.9,0-10.7-4.8-10.7-10.7
		s4.8-10.7,10.7-10.7h202.7c5.9,0,10.7,4.7,10.7,10.6c0,0.4,0,0.8-0.1,1.2l-21.3,192c-0.5,4.3-3.5,7.9-7.7,9.1l-74.7,21.3
		C268.7,426.5,267.7,426.7,266.7,426.7z"/>
	<path class="st1" d="M352,298.7H170.7c-5.9,0-10.7-4.8-10.7-10.7s4.8-10.7,10.7-10.7H352c5.9,0,10.7,4.8,10.7,10.7
		S357.9,298.7,352,298.7z"/>
</g>
<g class="st2">
	<path class="st0" d="M216.5,50.6c-0.3,5.1-1.8,9.5-4.5,13.4c-2.8,3.9-6.7,6.9-11.7,9c-5,2.1-10.7,3.2-17.2,3.2
		c-10.6,0-19-3.1-25.1-9.3c-6.1-6.2-9.1-15-9.1-26.4V37c0-7.1,1.4-13.4,4.1-18.7c2.8-5.3,6.7-9.5,11.9-12.4c5.2-2.9,11.2-4.4,18-4.4
		c9.8,0,17.7,2.3,23.6,7c6,4.6,9.3,11,10.1,19.2h-19.4c-0.1-4.4-1.4-7.6-3.7-9.5c-2.3-1.9-5.9-2.9-10.6-2.9c-4.8,0-8.4,1.6-10.6,4.9
		c-2.3,3.3-3.4,8.5-3.5,15.6v5.1c0,7.8,1.1,13.3,3.2,16.6c2.2,3.3,5.9,5,11.2,5c4.5,0,7.9-0.9,10.3-2.8c2.4-1.9,3.6-4.9,3.8-9H216.5
		z"/>
	<path class="st0" d="M274.3,55.9c0-2.6-1-4.6-3-6c-2-1.4-5.6-2.9-10.6-4.4c-5.1-1.5-9.2-3-12.4-4.4c-10.5-4.6-15.7-11-15.7-19.1
		c0-4,1.3-7.6,3.9-10.7c2.6-3.1,6.3-5.5,11.1-7.2c4.8-1.7,10.1-2.6,16.1-2.6c5.8,0,11,0.9,15.6,2.8c4.6,1.9,8.2,4.5,10.7,8
		c2.5,3.4,3.8,7.4,3.8,11.8h-19.4c0-3-1-5.3-3-6.9c-2-1.6-4.7-2.4-8.2-2.4c-3.5,0-6.2,0.7-8.2,2.1c-2,1.4-3,3.1-3,5.3
		c0,1.9,1.1,3.6,3.3,5.1c2.2,1.5,6.1,3.1,11.7,4.7c5.6,1.6,10.2,3.4,13.7,5.2c8.7,4.5,13.1,10.8,13.1,18.7c0,6.4-2.7,11.4-8,15
		c-5.3,3.6-12.6,5.4-21.9,5.4c-6.5,0-12.5-1.1-17.8-3.2c-5.3-2.1-9.3-5-12-8.7c-2.7-3.7-4-7.9-4-12.7h19.5c0,3.9,1.1,6.8,3.4,8.6
		c2.2,1.8,5.9,2.8,10.9,2.8c3.2,0,5.8-0.6,7.6-1.9C273.3,60,274.3,58.2,274.3,55.9z"/>
	<path class="st0" d="M352.3,55.9c0-2.6-1-4.6-3-6c-2-1.4-5.6-2.9-10.6-4.4c-5.1-1.5-9.2-3-12.4-4.4c-10.5-4.6-15.7-11-15.7-19.1
		c0-4,1.3-7.6,3.9-10.7c2.6-3.1,6.3-5.5,11.1-7.2c4.8-1.7,10.1-2.6,16.1-2.6c5.8,0,11,0.9,15.6,2.8c4.6,1.9,8.2,4.5,10.7,8
		s3.8,7.4,3.8,11.8h-19.4c0-3-1-5.3-3-6.9c-2-1.6-4.7-2.4-8.2-2.4c-3.5,0-6.2,0.7-8.2,2.1c-2,1.4-3,3.1-3,5.3c0,1.9,1.1,3.6,3.3,5.1
		c2.2,1.5,6.1,3.1,11.7,4.7c5.6,1.6,10.2,3.4,13.8,5.2c8.7,4.5,13.1,10.8,13.1,18.7c0,6.4-2.7,11.4-8,15c-5.3,3.6-12.6,5.4-21.9,5.4
		c-6.5,0-12.5-1.1-17.8-3.2c-5.3-2.1-9.3-5-12-8.7c-2.7-3.7-4-7.9-4-12.7h19.5c0,3.9,1.1,6.8,3.4,8.6s5.9,2.8,10.9,2.8
		c3.2,0,5.8-0.6,7.6-1.9C351.3,60,352.3,58.2,352.3,55.9z"/>
</g>
</svg>
