<?xml version="1.0" encoding="utf-8"?>
<!-- Generator: Adobe Illustrator 22.0.0, SVG Export Plug-In . SVG Version: 6.00 Build 0)  -->
<svg version="1.1" id="Capa_1" xmlns="http://www.w3.org/2000/svg" xmlns:xlink="http://www.w3.org/1999/xlink" x="0px" y="0px"
	 viewBox="0 0 512 512" style="enable-background:new 0 0 512 512;" xml:space="preserve">
<style type="text/css">
	.st0{fill:#FF5722;}
	.st1{fill:#FAFAFA;}
	.st2{font-family:'Roboto-Black';}
	.st3{font-size:102.3176px;}
	.st4{letter-spacing:6.3;}
</style>
<path class="st0" d="M434.6,110.2c-2-2.2-4.9-3.5-7.9-3.5H85.4c-5.9,0-10.7,4.7-10.7,10.6c0,0.4,0,0.7,0,1.1l32,341.3
	c0.4,4.4,3.5,8.1,7.7,9.3l149.3,42.7c1,0.3,2,0.4,3,0.4c1.1,0,2.3-0.2,3.4-0.5l128-42.7c4-1.3,6.9-4.9,7.3-9.1l32-341.3
	C437.6,115.3,436.6,112.4,434.6,110.2z"/>
<path class="st1" d="M266.7,426.7c-1,0-2-0.1-2.9-0.4l-74.7-21.3c-3.7-1-6.5-4-7.4-7.7L171,354.6c-1.6-5.7,1.8-11.5,7.5-13.1
	s11.6,1.8,13.1,7.5c0,0.2,0.1,0.3,0.1,0.5l9.2,36.7l65.6,18.7l54.3-18.1l8.8-88.1H170.7c-5.4,0-10-4-10.7-9.3L149.4,204
	c-0.7-5.8,3.4-11.2,9.2-11.9c0.5-0.1,1-0.1,1.4-0.1h202.7c5.9,0,10.7,4.8,10.7,10.7s-4.8,10.7-10.7,10.7H172.1l8,64h161.3
	c5.9,0,10.7,4.7,10.7,10.6c0,0.4,0,0.7-0.1,1.1l-10.7,106.7c-0.4,4.2-3.2,7.7-7.2,9.1l-64,21.3C269,426.5,267.9,426.7,266.7,426.7z"
	/>
<text transform="matrix(1.1097 0 0 1 100.1629 74.2725)" class="st0 st2 st3 st4">HTML</text>
</svg>
