<?xml version="1.0" encoding="utf-8"?>
<!-- Generator: Adobe Illustrator 22.0.0, SVG Export Plug-In . SVG Version: 6.00 Build 0)  -->
<svg version="1.1" id="Capa_1" xmlns="http://www.w3.org/2000/svg" xmlns:xlink="http://www.w3.org/1999/xlink" x="0px" y="0px"
	 viewBox="0 0 512 512" style="enable-background:new 0 0 512 512;" xml:space="preserve">
<style type="text/css">
	.st0{fill:#FF5722;}
	.st1{fill:#FAFAFA;}
	.st2{enable-background:new    ;}
</style>
<path class="st0" d="M434.6,110.2c-2-2.2-4.9-3.5-7.9-3.5H85.4c-5.9,0-10.7,4.7-10.7,10.6c0,0.4,0,0.7,0,1.1l32,341.3
	c0.4,4.4,3.5,8.1,7.7,9.3l149.3,42.7c1,0.3,2,0.4,3,0.4c1.1,0,2.3-0.2,3.4-0.5l128-42.7c4-1.3,6.9-4.9,7.3-9.1l32-341.3
	C437.6,115.3,436.6,112.4,434.6,110.2z"/>
<path class="st1" d="M266.7,426.7c-1,0-2-0.1-2.9-0.4L189.1,405c-3.7-1-6.5-4-7.4-7.7L171,354.6c-1.6-5.7,1.8-11.5,7.5-13.1
	s11.6,1.8,13.1,7.5c0,0.2,0.1,0.3,0.1,0.5l9.2,36.7l65.6,18.7l54.3-18.1l8.8-88.1H170.7c-5.4,0-10-4-10.7-9.3L149.4,204
	c-0.7-5.8,3.4-11.2,9.2-11.9c0.5-0.1,1-0.1,1.4-0.1h202.7c5.9,0,10.7,4.8,10.7,10.7s-4.8,10.7-10.7,10.7H172.1l8,64h161.3
	c5.9,0,10.7,4.7,10.7,10.6c0,0.4,0,0.7-0.1,1.1l-10.7,106.7c-0.4,4.2-3.2,7.7-7.2,9.1l-64,21.3C269,426.5,267.9,426.7,266.7,426.7z"
	/>
<g class="st2">
	<path class="st0" d="M173.7,74.3h-19.3V43.9h-28.7v30.4h-19.5V1.5h19.5v28.9h28.7V1.5h19.3V74.3z"/>
	<path class="st0" d="M254.7,15.1h-24.2v59.2H211V15.1h-23.8V1.5h67.5V15.1z"/>
	<path class="st0" d="M295.4,1.5l18,50.6l18-50.6H357v72.7h-19.5v-17l1.9-34.8l-19.5,51.8H307l-19.6-51.8l1.9,34.8v17h-19.5V1.5
		H295.4z"/>
	<path class="st0" d="M395.8,60.8h33.9v13.5h-53.3V1.5h19.5V60.8z"/>
</g>
</svg>
