<?xml version="1.0" encoding="utf-8"?>
<!-- Generator: Adobe Illustrator 22.0.0, SVG Export Plug-In . SVG Version: 6.00 Build 0)  -->
<svg version="1.1" id="Capa_1" xmlns="http://www.w3.org/2000/svg" xmlns:xlink="http://www.w3.org/1999/xlink" x="0px" y="0px"
	 viewBox="0 0 512 512" style="enable-background:new 0 0 512 512;" xml:space="preserve">
<style type="text/css">
	.st0{fill:#EFC725;}
	.st1{fill:none;stroke:#F7F7F7;stroke-width:20;stroke-miterlimit:10;}
	.st2{font-family:'Roboto-Black';}
	.st3{font-size:102.3176px;}
	.st4{letter-spacing:6.3;}
</style>
<path class="st0" d="M434.5,107.3c-2-2.2-4.9-3.5-7.9-3.5H85.3c-5.9,0-10.7,4.7-10.7,10.6c0,0.4,0,0.7,0,1.1l32,341.3
	c0.4,4.4,3.5,8.1,7.7,9.3l149.3,42.7c1,0.3,2,0.4,3,0.4c1.1,0,2.3-0.2,3.4-0.5L398,466c4-1.3,6.9-4.9,7.3-9.1l32-341.3
	C437.5,112.5,436.5,109.5,434.5,107.3z"/>
<path class="st1" d="M338.3,235.8L324,191.2c-1-3.1-3.9-5.2-7.2-5.2H210.1c-4.3,0-8.2,2.8-9.5,7l-29.9,93.8
	c-2.1,6.7,2.9,13.5,9.9,13.5h152.5c5.8,0,10,5.7,8.2,11.2l-29.8,93.9c-1.8,5.7-7.2,9.7-13.2,9.7h-89c-6,0-11.3-4-12.9-9.8
	l-14.9-54.1"/>
<text transform="matrix(1.1097 0 0 1 180.8003 74.2725)" class="st0 st2 st3 st4">JS</text>
</svg>
