<?xml version="1.0" encoding="utf-8"?>
<!-- Generator: Adobe Illustrator 22.0.0, SVG Export Plug-In . SVG Version: 6.00 Build 0)  -->
<svg version="1.1" id="Capa_1" xmlns="http://www.w3.org/2000/svg" xmlns:xlink="http://www.w3.org/1999/xlink" x="0px" y="0px"
	 viewBox="0 0 512 512" style="enable-background:new 0 0 512 512;" xml:space="preserve">
<style type="text/css">
	.st0{fill:#EFC725;}
	.st1{fill:none;stroke:#F7F7F7;stroke-width:20;stroke-miterlimit:10;}
	.st2{enable-background:new    ;}
</style>
<path class="st0" d="M434.5,107.3c-2-2.2-4.9-3.5-7.9-3.5H85.3c-5.9,0-10.7,4.7-10.7,10.6c0,0.4,0,0.7,0,1.1l32,341.3
	c0.4,4.4,3.5,8.1,7.7,9.3l149.3,42.7c1,0.3,2,0.4,3,0.4c1.1,0,2.3-0.2,3.4-0.5L398,466c4-1.3,6.9-4.9,7.3-9.1l32-341.3
	C437.5,112.5,436.5,109.5,434.5,107.3z"/>
<path class="st1" d="M338.3,235.8L324,191.2c-1-3.1-3.9-5.2-7.2-5.2H210.1c-4.3,0-8.2,2.8-9.5,7l-29.9,93.8
	c-2.1,6.7,2.9,13.5,9.9,13.5h152.5c5.8,0,10,5.7,8.2,11.2l-29.8,93.9c-1.8,5.7-7.2,9.7-13.2,9.7h-89c-6,0-11.3-4-12.9-9.8
	l-14.9-54.1"/>
<g class="st2">
	<path class="st0" d="M219.1,1.5h19.4v49.9c0,4.6-1.2,8.8-3.6,12.4c-2.4,3.6-5.7,6.4-10,8.4c-4.3,2-9,3-14.3,3c-8.8,0-15.6-2-20.5-6
		c-4.9-4-7.3-9.7-7.3-17h19.5c0,3.3,0.6,5.7,1.9,7.2c1.3,1.5,3.4,2.2,6.4,2.2c2.7,0,4.8-0.9,6.2-2.7c1.5-1.8,2.2-4.4,2.2-7.6V1.5z"
		/>
	<path class="st0" d="M299.3,54.9c0-2.6-1-4.6-3-6c-2-1.4-5.6-2.9-10.6-4.4c-5.1-1.5-9.2-3-12.4-4.4c-10.5-4.6-15.7-11-15.7-19.1
		c0-4,1.3-7.6,3.9-10.7c2.6-3.1,6.3-5.5,11.1-7.2c4.8-1.7,10.1-2.6,16.1-2.6c5.8,0,11,0.9,15.6,2.8c4.6,1.9,8.2,4.5,10.7,8
		c2.5,3.4,3.8,7.4,3.8,11.8h-19.4c0-3-1-5.3-3-6.9c-2-1.6-4.7-2.4-8.2-2.4c-3.5,0-6.2,0.7-8.2,2.1c-2,1.4-3,3.1-3,5.3
		c0,1.9,1.1,3.6,3.3,5.1c2.2,1.5,6.1,3.1,11.7,4.7c5.6,1.6,10.2,3.4,13.7,5.2c8.7,4.5,13.1,10.8,13.1,18.7c0,6.4-2.7,11.4-8,15
		c-5.3,3.6-12.6,5.4-21.9,5.4c-6.5,0-12.5-1.1-17.8-3.2c-5.3-2.1-9.3-5-12-8.7c-2.7-3.7-4-7.9-4-12.7h19.5c0,3.9,1.1,6.8,3.4,8.6
		s5.9,2.8,10.9,2.8c3.2,0,5.8-0.6,7.6-1.9C298.3,59,299.3,57.2,299.3,54.9z"/>
</g>
</svg>
