<?xml version="1.0" encoding="utf-8"?>
<!-- Generator: Adobe Illustrator 22.0.0, SVG Export Plug-In . SVG Version: 6.00 Build 0)  -->
<svg version="1.1" id="Capa_1" xmlns="http://www.w3.org/2000/svg" xmlns:xlink="http://www.w3.org/1999/xlink" x="0px" y="0px"
	 viewBox="0 0 512 512" style="enable-background:new 0 0 512 512;" xml:space="preserve">
<style type="text/css">
	.st0{fill:#83CD29;}
	.st1{enable-background:new    ;}
</style>
<g transform="matrix(6.212143667054557, 0, 0, 6.212143667054557, 268.3108714862053, 75.514829886315)">
	<title>node-icon</title>
	<g id="Layer_2_1_">
		<g id="svg3030">
			<g id="layer1">
				<path id="path28" class="st0" d="M-2.3,4.3C-3.1,4.3-4,4.6-4.8,5l-23.8,13.7c-1.5,0.9-2.5,2.6-2.5,4.4v27.4
					c0,1.8,0.9,3.4,2.5,4.4l6.2,3.6c3,1.5,4.1,1.5,5.5,1.5c4.5,0,7-2.7,7-7.4V25.4c0-0.4-0.3-0.7-0.7-0.6h-3c-0.4,0-0.7,0.3-0.7,0.6
					v27.1c0,2.1-2.2,4.2-5.7,2.4l-6.5-3.8c-0.2-0.1-0.4-0.4-0.4-0.6V23.1c0-0.3,0.2-0.5,0.4-0.6L-2.6,8.7c0.2-0.1,0.5-0.1,0.7,0
					l23.8,13.7c0.2,0.1,0.4,0.4,0.4,0.6v27.4c0,0.3-0.1,0.5-0.4,0.6L-1.9,64.9c-0.2,0.1-0.5,0.1-0.7,0l-6.1-3.6
					c-0.2-0.1-0.4-0.1-0.6,0c-1.1,0.7-2.3,1.2-3.6,1.6c-0.4,0.1-1,0.3,0.2,1l8,4.7c1.5,0.9,3.4,0.9,5,0L24,54.9
					c1.5-0.9,2.5-2.6,2.5-4.4V23.1c0-1.8-0.9-3.4-2.5-4.4L0.2,5C-0.6,4.6-1.4,4.3-2.3,4.3L-2.3,4.3z M4.1,24
					c-6.8,0-10.9,2.9-10.9,7.7c0,5.2,4,6.6,10.5,7.3c7.8,0.8,8.4,1.9,8.4,3.4c0,2.7-2.1,3.8-7.1,3.8c-6.3,0-7.7-1.6-8.1-4.7
					c0-0.3-0.3-0.6-0.6-0.6h-3.1c-0.4,0-0.7,0.3-0.7,0.7c0,4,2.2,8.8,12.6,8.8c7.5,0,11.9-3,11.9-8.1s-3.5-6.5-10.9-7.5
					c-7.3-1-8.1-1.5-8.1-3.2c0-1.4,0.6-3.3,6.1-3.3c4.9,0,6.7,1.1,7.4,4.4c0.1,0.3,0.3,0.5,0.6,0.6h3.1c0.2,0,0.4-0.1,0.5-0.3
					c0.1-0.1,0.2-0.3,0.2-0.5C15.5,26.6,11.7,24,4.1,24L4.1,24z"/>
			</g>
		</g>
	</g>
</g>
<g class="st1">
	<path class="st0" d="M182.6,77.3h-19.3L134.6,32v45.3h-19.5V4.5h19.5l28.6,45.3V4.5h19.4V77.3z"/>
	<path class="st0" d="M270.2,42.4c0,7.1-1.5,13.4-4.4,18.8c-2.9,5.5-7.1,9.7-12.4,12.6c-5.4,2.9-11.5,4.4-18.4,4.4
		c-6.9,0-13-1.4-18.3-4.3s-9.5-6.9-12.4-12.2c-3-5.3-4.5-11.4-4.7-18.2v-4.1c0-7.1,1.5-13.4,4.4-18.9c2.9-5.4,7.1-9.7,12.5-12.6
		c5.4-3,11.6-4.4,18.5-4.4c6.8,0,12.9,1.5,18.3,4.4c5.4,2.9,9.5,7.1,12.5,12.5c3,5.4,4.5,11.6,4.5,18.6V42.4z M250.4,39.4
		c0-7.2-1.3-12.7-4-16.5c-2.7-3.7-6.5-5.6-11.5-5.6c-9.8,0-14.9,6.6-15.5,19.8l-0.1,5.3c0,7.1,1.3,12.6,3.9,16.4
		c2.6,3.8,6.5,5.7,11.7,5.7c4.9,0,8.7-1.9,11.4-5.6c2.7-3.8,4-9.2,4-16.2V39.4z"/>
	<path class="st0" d="M287.2,77.3V4.5h26c7.1,0,13.5,1.5,19.2,4.4c5.7,2.9,10.1,7,13.3,12.3c3.2,5.3,4.8,11.3,4.9,17.9v3.3
		c0,6.7-1.6,12.6-4.7,17.9c-3.1,5.3-7.5,9.4-13.2,12.4c-5.7,3-12,4.5-19,4.5H287.2z M306.6,18.1v45.7h6.8c5.6,0,9.9-1.8,12.9-5.4
		c3-3.6,4.5-8.9,4.5-16v-3.1c0-7-1.5-12.3-4.5-15.9c-3-3.6-7.4-5.3-13.1-5.3H306.6z"/>
	<path class="st0" d="M417.5,46.4h-30.6v17.4h36.1v13.5h-55.6V4.5h55.7v13.5h-36.3v15.3h30.6V46.4z"/>
</g>
</svg>
