<?xml version="1.0" encoding="utf-8"?>
<!-- Generator: Adobe Illustrator 22.0.0, SVG Export Plug-In . SVG Version: 6.00 Build 0)  -->
<svg version="1.1" id="Capa_1" xmlns="http://www.w3.org/2000/svg" xmlns:xlink="http://www.w3.org/1999/xlink" x="0px" y="0px"
	 viewBox="0 0 512 512" style="enable-background:new 0 0 512 512;" xml:space="preserve">
<style type="text/css">
	.st0{fill:#83CD29;}
	.st1{font-family:'Roboto-Black';}
	.st2{font-size:102.3176px;}
	.st3{letter-spacing:6.3;}
</style>
<g transform="matrix(6.212143667054557, 0, 0, 6.212143667054557, 268.3108714862053, 75.514829886315)">
	<title>node-icon</title>
	<g id="Layer_2_1_">
		<g id="svg3030">
			<g id="layer1">
				<path id="path28" class="st0" d="M-2.3,4.3C-3.1,4.3-4,4.6-4.8,5l-23.8,13.7c-1.5,0.9-2.5,2.6-2.5,4.4v27.4
					c0,1.8,0.9,3.4,2.5,4.4l6.2,3.6c3,1.5,4.1,1.5,5.5,1.5c4.5,0,7-2.7,7-7.4V25.4c0-0.4-0.3-0.7-0.7-0.6h-3c-0.4,0-0.7,0.3-0.7,0.6
					v27.1c0,2.1-2.2,4.2-5.7,2.4l-6.5-3.8c-0.2-0.1-0.4-0.4-0.4-0.6V23.1c0-0.3,0.2-0.5,0.4-0.6L-2.6,8.7c0.2-0.1,0.5-0.1,0.7,0
					l23.8,13.7c0.2,0.1,0.4,0.4,0.4,0.6v27.4c0,0.3-0.1,0.5-0.4,0.6L-1.9,64.9c-0.2,0.1-0.5,0.1-0.7,0l-6.1-3.6
					c-0.2-0.1-0.4-0.1-0.6,0c-1.1,0.7-2.3,1.2-3.6,1.6c-0.4,0.1-1,0.3,0.2,1l8,4.7c1.5,0.9,3.4,0.9,5,0L24,54.9
					c1.5-0.9,2.5-2.6,2.5-4.4V23.1c0-1.8-0.9-3.4-2.5-4.4L0.2,5C-0.6,4.6-1.4,4.3-2.3,4.3L-2.3,4.3z M4.1,24
					c-6.8,0-10.9,2.9-10.9,7.7c0,5.2,4,6.6,10.5,7.3c7.8,0.8,8.4,1.9,8.4,3.4c0,2.7-2.1,3.8-7.1,3.8c-6.3,0-7.7-1.6-8.1-4.7
					c0-0.3-0.3-0.6-0.6-0.6h-3.1c-0.4,0-0.7,0.3-0.7,0.7c0,4,2.2,8.8,12.6,8.8c7.5,0,11.9-3,11.9-8.1s-3.5-6.5-10.9-7.5
					c-7.3-1-8.1-1.5-8.1-3.2c0-1.4,0.6-3.3,6.1-3.3c4.9,0,6.7,1.1,7.4,4.4c0.1,0.3,0.3,0.5,0.6,0.6h3.1c0.2,0,0.4-0.1,0.5-0.3
					c0.1-0.1,0.2-0.3,0.2-0.5C15.5,26.6,11.7,24,4.1,24L4.1,24z"/>
			</g>
		</g>
	</g>
</g>
<text transform="matrix(1.1097 0 0 1 109.0904 77.2725)" class="st0 st1 st2 st3">NODE</text>
</svg>
