<?xml version="1.0" encoding="utf-8"?>
<!-- Generator: Adobe Illustrator 22.0.0, SVG Export Plug-In . SVG Version: 6.00 Build 0)  -->
<svg version="1.1" id="Capa_1" xmlns="http://www.w3.org/2000/svg" xmlns:xlink="http://www.w3.org/1999/xlink" x="0px" y="0px"
	 viewBox="0 0 512 512" style="enable-background:new 0 0 512 512;" xml:space="preserve">
<style type="text/css">
	.st0{fill:#61DAFB;}
	.st1{enable-background:new    ;}
</style>
<g>
	<path class="st0" d="M485.1,305c0-30.4-38-59.1-96.3-76.9c13.4-59.4,7.5-106.6-18.9-121.8c-6.1-3.5-13.2-5.2-20.9-5.2v20.8
		c4.3,0,7.8,0.8,10.6,2.4c12.7,7.3,18.2,35,13.9,70.7c-1,8.8-2.7,18-4.8,27.5c-18.3-4.5-38.3-7.9-59.3-10.2
		c-12.6-17.3-25.7-33-38.8-46.7c30.4-28.3,59-43.8,78.4-43.8V101l0,0c-25.7,0-59.3,18.3-93.3,50.1c-34-31.6-67.6-49.7-93.3-49.7
		v20.8c19.3,0,48,15.4,78.4,43.5c-13.1,13.7-26.1,29.3-38.6,46.6c-21.1,2.2-41.1,5.7-59.4,10.3c-2.1-9.3-3.7-18.4-4.9-27.1
		c-4.4-35.7,1-63.4,13.6-70.8c2.8-1.7,6.4-2.4,10.7-2.4v-20.8l0,0c-7.8,0-14.9,1.7-21.1,5.2c-26.2,15.1-32.1,62.3-18.6,121.5
		c-58.1,17.9-95.9,46.6-95.9,76.9c0,30.4,38,59.1,96.3,76.9c-13.4,59.4-7.5,106.6,18.9,121.8c6.1,3.5,13.2,5.2,21,5.2
		c25.7,0,59.3-18.3,93.3-50.1c34,31.6,67.6,49.7,93.3,49.7c7.8,0,14.9-1.7,21.1-5.2c26.2-15.1,32.1-62.3,18.6-121.5
		C447.3,364.1,485.1,335.3,485.1,305z M363.5,242.8c-3.5,12-7.8,24.5-12.6,36.9c-3.8-7.5-7.8-14.9-12.2-22.4
		c-4.3-7.5-8.9-14.8-13.4-21.9C338.5,237.3,351.3,239.8,363.5,242.8z M320.7,342.2c-7.3,12.6-14.8,24.6-22.5,35.7
		c-13.9,1.2-28,1.9-42.2,1.9c-14.1,0-28.2-0.7-42-1.8c-7.8-11.1-15.3-23-22.6-35.5c-7.1-12.2-13.5-24.7-19.4-37.2
		c5.8-12.5,12.3-25,19.3-37.3c7.3-12.6,14.8-24.6,22.5-35.7c13.9-1.2,28-1.9,42.2-1.9c14.1,0,28.2,0.7,42,1.8
		c7.8,11.1,15.3,23,22.6,35.5c7.1,12.2,13.5,24.7,19.4,37.2C334.2,317.5,327.7,330,320.7,342.2z M350.9,330.1
		c5,12.5,9.3,25,12.9,37.2c-12.2,3-25.1,5.5-38.5,7.5c4.6-7.2,9.2-14.6,13.4-22.1C343,345.1,347.1,337.5,350.9,330.1z M256.2,429.7
		c-8.7-9-17.4-19-26-29.9c8.4,0.4,17,0.7,25.7,0.7c8.8,0,17.5-0.2,26-0.7C273.5,410.8,264.8,420.8,256.2,429.7z M186.7,374.7
		c-13.3-2-26.1-4.4-38.3-7.4c3.5-12,7.8-24.5,12.6-36.9c3.8,7.5,7.8,14.9,12.2,22.4C177.6,360.3,182.1,367.6,186.7,374.7z
		 M255.7,180.4c8.7,9,17.4,19,26,29.9c-8.4-0.4-17-0.7-25.7-0.7c-8.8,0-17.5,0.2-26,0.7C238.4,199.3,247.1,189.3,255.7,180.4z
		 M186.6,235.4c-4.6,7.2-9.2,14.6-13.4,22.1c-4.3,7.5-8.3,14.9-12.1,22.4c-5-12.5-9.3-25-12.9-37.2
		C160.4,239.9,173.3,237.3,186.6,235.4z M102.1,352.3C69,338.2,47.7,319.7,47.7,305s21.4-33.2,54.4-47.3c8-3.5,16.8-6.5,25.9-9.4
		c5.3,18.3,12.3,37.4,21,56.9c-8.6,19.4-15.5,38.4-20.7,56.6C119,358.9,110.2,355.8,102.1,352.3z M152.3,485.7
		c-12.7-7.3-18.2-35-13.9-70.7c1-8.8,2.7-18,4.8-27.5c18.3,4.5,38.3,7.9,59.3,10.2c12.6,17.3,25.7,33,38.8,46.7
		c-30.4,28.3-59,43.8-78.4,43.8C158.7,488.2,155.1,487.3,152.3,485.7z M373.9,414.6c4.4,35.7-1,63.4-13.6,70.8
		c-2.8,1.7-6.4,2.4-10.7,2.4c-19.3,0-48-15.4-78.4-43.5c13.1-13.7,26.1-29.3,38.6-46.6c21.1-2.2,41.1-5.7,59.4-10.3
		C371.1,396.8,372.8,405.9,373.9,414.6z M409.8,352.3c-8,3.5-16.8,6.5-25.9,9.4c-5.3-18.3-12.3-37.4-21-56.9
		c8.6-19.4,15.5-38.4,20.7-56.6c9.2,2.9,18,6.1,26.2,9.5c33.1,14.1,54.4,32.6,54.4,47.3S442.9,338.3,409.8,352.3z"/>
	<path class="st0" d="M162.4,101.4L162.4,101.4L162.4,101.4z"/>
	<circle class="st0" cx="255.9" cy="305" r="42.7"/>
	<path class="st0" d="M348.9,101.1L348.9,101.1L348.9,101.1z"/>
</g>
<g class="st1">
	<path class="st0" d="M116.2,48.5h-10.5v25.7H86.2V1.5H118c9.6,0,17.1,1.9,22.5,5.7c5.4,3.8,8.1,9.2,8.1,16.2
		c0,5.1-1.1,9.2-3.4,12.6c-2.3,3.3-5.8,6-10.7,8.1l16.9,29.4v0.8h-20.8L116.2,48.5z M105.6,35.1H118c3.7,0,6.5-0.9,8.3-2.6
		c1.9-1.8,2.8-4.2,2.8-7.3c0-3.1-0.9-5.6-2.8-7.4c-1.9-1.8-4.7-2.7-8.3-2.7h-12.3V35.1z"/>
	<path class="st0" d="M217.2,43.4h-30.6v17.4h36.1v13.5h-55.6V1.5h55.7v13.5h-36.3v15.3h30.6V43.4z"/>
	<path class="st0" d="M283.5,60.7h-26.7l-4.7,13.6h-20.8L261,1.5h18.3l29.8,72.7h-20.9L283.5,60.7z M261.5,47.1h17.4l-8.7-25.2
		L261.5,47.1z"/>
	<path class="st0" d="M386.1,49.6c-0.3,5.1-1.8,9.5-4.5,13.4c-2.8,3.9-6.7,6.9-11.7,9c-5,2.1-10.7,3.2-17.2,3.2
		c-10.6,0-19-3.1-25.1-9.3c-6.1-6.2-9.1-15-9.1-26.4V36c0-7.1,1.4-13.4,4.1-18.7c2.8-5.3,6.7-9.5,11.9-12.4c5.2-2.9,11.2-4.4,18-4.4
		c9.8,0,17.7,2.3,23.6,7c6,4.6,9.3,11,10.1,19.2h-19.4c-0.1-4.4-1.4-7.6-3.7-9.5c-2.3-1.9-5.9-2.9-10.6-2.9c-4.8,0-8.4,1.6-10.6,4.9
		c-2.3,3.3-3.4,8.5-3.5,15.6v5.1c0,7.8,1.1,13.3,3.2,16.6c2.2,3.3,5.9,5,11.2,5c4.5,0,7.9-0.9,10.3-2.8c2.4-1.9,3.6-4.9,3.8-9H386.1
		z"/>
	<path class="st0" d="M463.9,15.1h-24.2v59.2h-19.5V15.1h-23.8V1.5h67.5V15.1z"/>
</g>
</svg>
